<?xml version="1.0" standalone="yes"?>
<!DOCTYPE svg PUBLIC "-//W3C//DTD SVG 1.0//EN"
"http://www.w3.org/TR/2001/REC-SVG-20010904/DTD/svg10.dtd">

<svg id="canvas"
     width="100%" height="100%" 
     xmlns="http://www.w3.org/2000/svg" 
     xmlns:lively="http://www.experimentalstuff.com/Lively"
     xmlns:xlink="http://www.w3.org/1999/xlink"
     xmlns:D="DAV:"
     xml:space="preserve"
     zoomAndPan="disable"
     >
<defs id="Defaults">

<!-- from http://svgicons.sourceforge.net -->

<radialGradient id="BaseRadialGradient"
		cx="218.9404"
		cy="219.7715"
		r="150.7063"
		fx="218.9404"
		fy="219.7715"
		gradientUnits="userSpaceOnUse">
  <stop offset="0" stop-color="#73ffff"/>
  <stop offset="0.2809" stop-color="#2EA6B9"/>
  <!--      <stop offset="1" style="stop-color:#006b8b;stroke:#000000;stroke-opacity:0.986014;stroke-width:0.981612;" /> -->
  <stop offset="1" stop-color="#5382A1"/>
</radialGradient>


<symbol id="WebSpiderIcon">
  <defs>
  </defs>
  <path
     style="fill:#a4c9ee;fill-opacity:0.7;"
     d="M134.757,263.776c0,66.739,54.298,121.04,121.039,121.04c66.739,0,121.039-54.301,121.039-121.04c0-66.741-54.3-121.039-121.039-121.039c-66.741,0-121.039,54.298-121.039,121.039z"
     transform="matrix(1.89511,0,0,1.91236,-231.458,-247.971)" />
  <path
     style="fill:url(#BaseRadialGradient);fill-rule:evenodd;stroke:#1c6671;stroke-width:7.73106;stroke-opacity:0.988235;"
     d="M356.643,263.366c0,57.027-46.23,103.257-103.256,103.257c-57.027,0-103.256-46.229-103.256-103.257c0-57.027,46.229-103.256,103.256-103.256     c57.025,0,103.256,46.229,103.256,103.256z"
     transform="matrix(2.04451,0,0,2.04451,-264.353,-281.723)" />
  <path
     style="fill:#ffffff;stroke:#1c6772;stroke-opacity:0.988235;"
     d="M96.34,100.239l0.209,0.002l0.006-0.619l-0.21-0.002l-0.005,0.619z"
     transform="matrix(3.04108,0,0,3.04108,66.4461,-85.9733)" />
  <path
     d="M106.222,107.343l-22.206,53.228l3.676,1.533c0,0,19.451-46.62,21.234-50.891c3.729,2.732,44.135,32.344,44.135,32.344l2.356-3.213l-48.221-35.336l-0.975,2.335z"
     style="fill:#ffffff;stroke:#1c6772;stroke-opacity:0.988235;"
     transform="matrix(3.04108,0,0,3.04108,-77.9194,-69.2354)" />
  <path
     d="M98.728,49.843l7.738,61.554l50.564-30.486l-2.059-3.412c0,0-40.629,24.497-45.315,27.324c-0.688-5.465-6.976-55.477-6.976-55.477l-3.953,0.498z"
     style="fill:#ffffff;stroke:#1c6772;stroke-opacity:0.988235;"
     transform="matrix(2.96931,0,0,2.67018,-68.7412,-34.195)" />
  <path
     d="M56.843,98.065l50.759,11.982l0.917-3.877l-50.76-11.984l-0.916,3.879z"
     style="fill:#ffffff;stroke:#1c6772;stroke-opacity:0.988235;"
     transform="matrix(3.20305,0,0,2.51343,-99.6793,-11.1694)" />
  <path
     d="M59.958,95.676l-1.027,1.027l29.744,57.844l58.289-17.918V84.448l-44.077-15.65L71.84,99.846l23.523,38.903l38.349-11.835V92.448l-29.298-10.59l-17.909,21.651l14.859,21.274l19.509-7.367v-17.093l-13.516-6.379l-1.701,3.603c0,0,9.35,4.413,11.232,5.302      c0,1.884,0,9.774,0,11.812c-1.991,0.751-11.816,4.465-14.033,5.303c-1.433-2.053-9.944-14.239-11.348-16.25c1.605-1.941,12.697-15.352,14.188-17.155c2.26,0.817,21.777,7.87,24.031,8.686c0,2.431,0,26.185,0,28.735c-2.479,0.762-29.948,9.24-32.564,10.045      c-1.438-2.377-18.857-31.185-20.298-33.568c1.978-1.979,25.454-25.455,27.061-27.062c2.165,0.769,36.643,13.011,39.053,13.868c0,2.572,0,43.736,0,46.424c-2.592,0.797-49.355,15.17-52.284,16.074c-1.409-2.74-25.657-49.897-26.891-52.293      c1.952-1.953,39.221-39.221,39.221-39.221l-2.817-2.818L59.958,95.676z"
     style="fill:#ffffff;stroke:#1c6772;stroke-opacity:0.988235;"
     transform="matrix(3.49265,0,0,3.23106,-121.269,-81.8574)" />
</symbol>

<symbol id="CloseIcon">
  <defs>
    <radialGradient id="OrangeRadialGradient"
		    cx="218.9404"
		    cy="219.7715"
		    r="150.7063"
		    fx="218.9404"
		    fy="219.7715"
		    gradientUnits="userSpaceOnUse">
      <stop offset="0" stop-color="#ffc726"/>
<!--      <stop offset="0.2809" stop-color="#ffc726"/> -->
      <stop offset="1" stop-color="#ef6f00"/>
      </radialGradient>
      <radialGradient xlink:href="#OrangeRadialGradient" id="radialGradient92" 
		      cx="0" cy="0" fx="0" fy="0" r="0.789127"
		      gradientUnits="objectBoundingBox" gradientTransform="matrix(1.06784,0,0,0.936469,0.342219,0.344712)"
		      spreadMethod="pad" />
    </defs>
  <path
     style="fill:#ef6f00;fill-opacity:0.7;"
     d="M134.757,263.776c0,66.739,54.298,121.04,121.039,121.04c66.739,0,121.039-54.301,121.039-121.04c0-66.741-54.3-121.039-121.039-121.039c-66.741,0-121.039,54.298-121.039,121.039z"
     transform="matrix(1.89511,0,0,1.91236,-231.458,-247.971)" />
  <path
     style="fill:url(#radialGradient92);fill-rule:evenodd;stroke:#ef6f00;stroke-width:7.72505;"
     d="M356.643,263.366c0,57.027-46.23,103.257-103.256,103.257c-57.027,0-103.256-46.229-103.256-103.257c0-57.027,46.229-103.256,103.256-103.256     c57.025,0,103.256,46.229,103.256,103.256z"
     transform="matrix(2.04451,0,0,2.04451,-264.353,-281.723)" />
  <path
     style="fill:#ffffff;stroke:#ef6f00;stroke-width:9.49211;"
     d="M 246.07 280.233 L 164.73 280.777 C 151.122 280.863 145.143 265.54 145.421 255.258 C 144.775 247.053 148.852 232.142 164.429 230.994 L 244.216 229.011 L 241.953 153.421 C 241.796 138.289 257.675 128.71 267.404 129.607 C 278.285 128.656 290.708 137.925 291.688 150.233 C 291.688 155.507 293.031 209.592 293.209 230.76 L 369.189 227.788 C 382.351 226.748 395.032 239.215 395.06 249.825 C 395.088 260.706 393.504 274.842 374.095 275.209 L 297.205 277.016 L 299.416 360.521 C 299.502 371.358 285.104 379.184 276.67 378.906 C 268.465 379.552 251.244 376.861 250.096 361.284 L 246.07 280.233 z "
     transform="matrix(0.908402,-0.864764,0.864764,0.908402,-204.249,267.198)" />
</symbol>


<symbol id="SunLogo" style="fill:#4d66a9;fill-rule:evenodd">
  <path
     d="M 50.638,197.266 C 39.156,209.207 19.864,209.207 7.923,197.266 C -2.641,185.323 -2.641,166.033 7.923,154.551 L 7.923,154.551 L 78.196,84.278 L 96.568,103.109 L 26.295,173.844 L 31.349,178.895 L 31.349,178.895 L 102.081,108.16 L 120.909,126.993 L 50.638,197.266 L 50.638,197.266 L 50.638,197.266 L 50.638,197.266 z "/>
  
  <path
     d="M 105.296,153.633 C 117.237,141.69 136.067,141.69 148.008,153.633 C 159.951,165.574 159.951,184.863 148.008,196.348 L 148.008,196.348 L 78.196,266.619 L 59.365,247.786 L 129.636,177.056 L 124.585,172.005 L 124.585,172.005 L 53.853,242.278 L 35.481,223.904 L 105.296,153.633 L 105.296,153.633 L 105.296,153.633 L 105.296,153.633 z "/>
  
  <path
     d="M 196.231,299.227 C 208.174,310.711 208.174,329.998 196.231,341.483 C 184.29,352.967 165.003,352.967 153.519,341.483 L 153.519,341.483 L 83.248,271.669 L 102.081,252.841 L 172.813,323.573 L 177.859,318.06 L 177.859,318.06 L 107.131,247.787 L 125.962,228.959 L 196.231,299.227 L 196.231,299.227 L 196.231,299.227 L 196.231,299.227 z "/>
  
  <path
     d="M 152.603,244.573 C 140.66,232.63 140.66,213.343 152.603,201.858 C 164.544,189.917 183.372,189.917 195.313,201.858 L 195.313,201.858 L 265.586,271.668 L 246.755,290.501 L 176.025,219.769 L 170.974,225.282 L 170.974,225.282 L 241.243,295.551 L 222.871,314.384 L 152.603,244.573 L 152.603,244.573 L 152.603,244.573 L 152.603,244.573 z " />
  
  <path
     d="M 243.541,197.266 C 231.6,209.207 212.315,209.207 200.826,197.266 C 188.883,185.323 188.883,166.033 200.826,154.551 L 200.826,154.551 L 270.638,84.278 L 289.471,103.109 L 218.739,173.844 L 224.249,178.895 L 224.249,178.895 L 294.981,108.16 L 313.355,126.993 L 243.541,197.266 L 243.541,197.266 L 243.541,197.266 L 243.541,197.266 z "/>
  
  <path
     d="M 298.204,153.633 C 309.679,141.69 328.968,141.69 340.912,153.633 C 352.853,165.574 352.853,184.404 340.912,196.348 L 340.912,196.348 L 270.639,266.619 L 251.808,247.786 L 322.54,177.056 L 317.494,172.005 L 317.494,172.005 L 246.757,242.278 L 227.924,223.904 L 298.204,153.633 L 298.204,153.633 L 298.204,153.633 L 298.204,153.633 z " />
  
  <path
     d="M 196.231,106.324 C 208.174,118.267 208.174,137.098 196.231,149.039 C 184.29,160.982 165.003,160.982 153.519,149.039 L 153.519,149.039 L 83.248,79.224 L 102.081,60.396 L 172.813,130.667 L 177.859,125.616 L 177.859,125.616 L 107.131,54.886 L 125.962,36.055 L 196.231,106.324 L 196.231,106.324 L 196.231,106.324 L 196.231,106.324 z " />
  
  <path
     d="M 152.603,51.67 C 140.66,40.188 140.66,20.896 152.603,8.955 C 164.544,-2.986 183.372,-2.986 195.313,8.955 L 195.313,8.955 L 265.586,79.224 L 246.755,97.598 L 176.025,27.327 L 170.974,32.378 L 170.974,32.378 L 241.243,103.108 L 222.871,121.939 L 152.603,51.67 L 152.603,51.67 L 152.603,51.67 L 152.603,51.67 z " />

<!-- 'Sun' -->

  <path
     d="M 545.752,113.213 C 547.129,111.836 548.052,110.916 548.511,109.998 L 548.511,109.998 L 558.614,71.421 L 558.614,71.421 C 560.45,64.529 563.668,57.183 563.668,49.37 C 563.668,47.078 561.827,45.239 559.991,43.401 C 537.945,31.919 525.089,30.542 505.338,30.083 C 454.357,29.165 418.07,64.99 417.611,103.567 C 416.693,149.956 454.816,177.974 474.105,211.505 C 481.451,223.904 486.046,236.307 485.587,251.004 C 485.587,266.16 474.105,305.657 434.147,304.739 C 413.937,304.28 394.647,290.501 395.109,256.052 L 395.109,256.052 L 395.109,231.252 L 395.109,231.252 C 394.648,228.957 394.648,226.662 392.817,224.821 C 391.892,223.444 389.138,222.526 387.302,223.444 C 383.633,225.28 382.705,229.416 381.333,233.088 C 379.036,243.654 376.733,254.675 374.448,265.236 C 373.989,266.159 375.361,266.159 374.448,266.159 C 373.064,273.967 371.684,282.233 371.225,290.041 C 370.766,294.631 373.989,298.767 378.112,301.52 C 393.276,309.333 412.565,315.299 434.147,315.758 C 486.046,316.676 528.302,271.207 529.22,226.661 C 529.22,221.148 528.761,216.095 528.302,211.503 C 523.707,184.403 506.256,166.49 487.882,143.985 C 476.859,129.744 454.357,110.455 455.275,85.193 C 455.275,64.526 472.267,42.022 503.039,42.022 C 543.918,42.938 537.487,87.032 537.946,106.78 C 537.946,109.077 537.946,110.913 539.782,111.834 C 541.622,113.672 543.917,114.134 545.752,113.213 L 545.752,113.213 L 545.752,113.213 L 545.752,113.213 z "/>

  <path
     d="M 740.953,232.63 C 735.899,232.63 734.063,240.438 729.01,249.622 C 718.907,265.237 702.828,285.906 695.026,285.906 C 692.267,285.906 692.267,282.693 692.267,279.934 C 692.267,271.208 700.993,242.737 711.1,211.965 C 725.338,168.33 742.33,120.561 742.33,118.266 C 742.33,115.051 741.871,113.212 737.286,113.212 C 733.604,113.212 728.551,112.753 721.202,112.753 C 707.423,112.753 706.505,114.589 705.587,117.345 C 698.697,129.745 689.049,170.624 669.303,205.99 C 668.385,207.828 667.003,209.664 666.085,211.503 C 639.908,255.133 606.378,289.122 591.686,289.122 C 586.173,289.122 582.956,284.986 582.956,279.015 C 582.956,269.371 593.522,241.354 605.002,211.503 C 618.322,177.054 632.565,140.311 632.565,126.073 C 632.565,120.101 629.342,107.699 614.645,107.699 C 574.699,107.699 541.164,172.462 541.164,179.811 C 541.164,182.108 542.541,183.944 545.295,183.944 C 550.349,183.944 553.562,173.38 566.423,155.926 C 573.772,144.903 583.42,136.175 588.01,136.175 C 591.687,136.175 592.146,138.931 592.146,141.229 C 592.146,147.66 579.285,178.434 566.882,211.503 C 555.866,240.895 545.754,272.125 545.754,290.499 C 545.754,302.442 550.349,313.922 565.51,313.922 C 601.789,313.922 640.827,268.453 668.386,227.579 C 669.763,226.197 670.686,226.197 670.222,228.497 C 664.25,245.03 656.443,277.179 656.443,296.93 C 656.443,305.197 657.82,314.84 671.14,314.84 C 702.829,314.84 744.626,251.92 744.626,237.223 C 744.625,234.93 743.707,232.63 740.953,232.63 L 740.953,232.63 L 740.953,232.63 L 740.953,232.63 z "/>

  <path
     d="M 948.55,235.848 C 947.632,234.007 945.796,233.089 943.96,233.089 C 942.583,233.089 941.201,234.466 940.742,235.848 C 932.016,251.004 913.183,284.076 900.327,284.989 C 898.027,284.989 896.65,282.694 896.65,280.394 C 896.65,272.586 909.052,242.738 920.991,211.505 C 932.016,183.028 942.583,153.174 942.583,137.557 C 942.583,115.97 930.64,108.16 916.401,108.16 C 876.44,108.16 834.184,171.544 819.946,192.674 C 819.028,194.51 818.569,194.051 819.028,192.213 C 825.918,166.954 834.184,144.447 834.184,127.452 C 834.184,117.347 829.594,106.783 816.274,106.783 C 788.261,106.783 747.841,161.9 747.841,175.679 C 747.841,178.435 748.759,180.271 750.595,180.271 C 755.649,180.271 759.784,171.086 767.133,160.981 C 776.318,149.497 787.802,134.799 795.146,134.799 C 796.069,134.799 797.446,135.717 797.446,139.853 C 797.446,148.579 788.261,178.435 777.236,211.504 C 766.674,243.654 754.731,279.016 747.382,302.443 C 745.546,307.951 749.218,309.333 764.833,309.333 C 775.863,309.333 780.907,310.71 783.207,301.979 C 791.015,273.043 805.712,240.436 822.245,211.503 C 823.627,208.287 825.458,205.531 827.299,202.318 C 844.291,172.462 880.116,129.745 900.326,129.745 C 904.916,129.745 907.675,133.422 907.675,140.311 C 907.675,150.414 894.814,179.811 881.952,211.503 C 869.091,243.194 855.77,277.179 856.688,296.012 C 857.147,306.574 860.824,314.381 874.603,314.381 C 905.833,314.381 932.933,271.207 945.794,248.243 C 948.091,244.573 951.304,240.438 948.55,235.848 L 948.55,235.848 L 948.55,235.848 L 948.55,235.848 z "/>

<!-- 'microsystems' -->


  <path
     d="M 442.872,396.141 L 442.872,369.041 L 442.872,369.041 C 442.872,363.069 441.041,359.397 435.523,359.397 C 429.092,359.397 423.123,365.823 423.123,375.93 L 423.123,375.93 L 423.123,396.14 L 415.315,396.14 L 415.315,369.04 L 415.315,369.04 C 415.315,363.527 414.395,359.396 408.425,359.396 C 401.535,359.396 396.023,366.286 396.023,375.929 L 396.023,375.929 L 396.023,396.139 L 388.215,396.139 L 388.215,353.883 L 396.023,353.883 L 396.023,353.883 C 396.023,356.178 395.564,359.855 395.105,362.609 L 395.105,362.609 L 395.105,362.609 L 395.105,362.609 C 397.861,356.637 403.379,352.965 410.72,352.965 C 419.907,352.965 422.209,358.932 422.661,362.609 C 424.499,358.473 429.092,352.965 437.361,352.965 C 445.628,352.965 450.686,357.096 450.686,366.744 L 450.686,366.744 L 450.686,396.139 L 442.872,396.139 L 442.872,396.141 L 442.872,396.141 z "/>


  <path
     d="M 509.927,396.6 C 499.824,396.6 491.099,392.005 491.099,376.39 C 491.099,362.611 498.453,352.967 512.686,352.967 C 515.899,352.967 519.576,353.426 522.33,354.344 L 522.33,354.344 L 521.412,361.234 L 521.412,361.234 C 518.658,360.316 515.44,359.398 512.227,359.398 C 503.96,359.398 499.366,365.824 499.366,375.472 C 499.366,383.739 502.579,390.169 511.768,390.169 C 515.44,390.169 519.112,389.251 521.871,387.874 L 521.871,387.874 L 522.789,394.764 L 522.789,394.764 C 519.576,395.682 514.981,396.6 509.927,396.6 L 509.927,396.6 L 509.927,396.6 L 509.927,396.6 z "/>

  <path
     d="M 556.319,360.315 C 546.68,358.933 542.54,365.364 542.54,379.143 L 542.54,379.143 L 542.54,396.14 L 534.732,396.14 L 534.732,353.884 L 542.081,353.884 L 542.081,353.884 C 542.081,356.179 542.081,360.315 541.163,363.987 L 541.163,363.987 L 541.622,363.987 L 541.622,363.987 C 543.458,358.015 547.589,352.044 556.319,352.966 L 556.319,352.966 L 556.319,360.315 L 556.319,360.315 L 556.319,360.315 z "/>



  <path
     d="M 584.8,352.967 C 571.475,352.967 563.208,362.611 563.208,375.013 L 563.208,375.013 L 563.208,375.472 L 563.208,375.472 C 563.208,390.169 571.016,397.059 582.954,397.059 C 595.351,397.059 604.082,387.415 604.541,375.013 C 604.541,374.554 604.541,374.554 604.541,374.095 C 604.542,358.934 595.816,352.967 584.8,352.967 L 584.8,352.967 L 584.8,352.967 L 584.8,352.967 z M 583.877,390.628 C 576.064,390.628 571.475,384.656 571.475,375.013 L 571.475,375.013 L 571.475,374.554 L 571.475,374.554 C 571.475,363.988 577.447,359.398 583.877,359.398 C 592.139,359.398 596.274,364.906 596.274,374.554 L 596.274,374.554 L 596.274,375.013 L 596.274,375.013 C 596.275,385.574 590.308,390.628 583.877,390.628 L 583.877,390.628 L 583.877,390.628 L 583.877,390.628 z "/>

  <path
     d="M 624.751,397.059 C 621.533,397.059 618.32,396.6 615.562,396.141 L 615.562,396.141 L 616.021,389.251 L 616.021,389.251 C 618.78,390.169 621.993,390.628 625.669,390.628 C 631.182,390.628 635.313,388.333 635.313,384.197 C 635.313,375.012 615.103,380.525 615.103,365.823 C 615.103,358.474 621.075,352.967 632.564,352.967 C 634.854,352.967 638.072,353.426 640.826,353.885 L 640.826,353.885 L 640.826,360.316 L 640.826,360.316 C 638.072,359.398 634.854,358.934 631.641,358.934 C 626.128,358.934 622.92,361.234 622.92,364.906 C 622.92,374.095 643.579,369.042 643.579,383.28 C 643.58,391.087 636.69,397.059 624.751,397.059 L 624.751,397.059 L 624.751,397.059 L 624.751,397.059 z "/>

  <path
     d="M 672.056,400.271 C 667.002,413.591 662.871,417.727 653.228,417.727 C 651.397,417.727 649.092,417.727 647.256,417.268 L 647.256,417.268 L 648.174,410.378 L 648.174,410.378 C 650.01,410.837 651.851,411.296 653.687,411.296 C 658.736,411.296 661.041,409.001 664.249,400.73 L 664.249,400.73 L 666.085,396.14 L 649.552,353.884 L 658.737,353.884 L 667.004,375.93 L 667.004,375.93 C 668.386,379.602 669.304,382.82 670.222,386.033 L 670.222,386.033 L 670.222,386.033 L 670.222,386.033 C 671.14,383.279 672.976,377.766 674.817,373.177 L 674.817,373.177 L 681.707,353.885 L 690.433,353.885 L 672.056,400.271 L 672.056,400.271 L 672.056,400.271 z "/>

  <path
     d="M 706.504,397.059 C 703.291,397.059 700.073,396.6 697.319,396.141 L 697.319,396.141 L 697.778,389.251 L 697.778,389.251 C 700.073,390.169 703.75,390.628 706.963,390.628 C 712.935,390.628 717.066,388.333 717.066,384.197 C 717.066,375.012 696.402,380.525 696.402,365.823 C 696.402,358.474 702.828,352.967 714.312,352.967 C 716.607,352.967 719.825,353.426 722.579,353.885 L 722.579,353.885 L 722.12,360.316 L 722.12,360.316 C 719.366,359.398 716.607,358.934 713.394,358.934 C 707.881,358.934 704.668,361.234 704.668,364.906 C 704.668,374.095 725.337,369.042 725.337,383.28 C 725.337,391.087 717.989,397.059 706.504,397.059 L 706.504,397.059 L 706.504,397.059 L 706.504,397.059 z "/>

  <path
     d="M 751.514,397.059 C 742.788,397.059 740.035,393.382 740.035,384.198 L 740.035,384.198 L 740.035,359.857 L 730.846,359.857 L 730.846,353.885 L 740.035,353.885 L 740.035,340.106 L 747.843,337.806 L 747.843,353.885 L 760.245,353.885 L 760.245,359.857 L 747.843,359.857 L 747.843,381.444 L 747.843,381.444 C 747.843,388.334 749.22,390.17 754.274,390.17 C 756.11,390.17 758.405,389.711 760.246,389.711 L 760.246,389.711 L 760.246,396.142 L 760.246,396.142 C 757.486,396.6 754.273,397.059 751.514,397.059 L 751.514,397.059 L 751.514,397.059 L 751.514,397.059 z "/>

  <path
     d="M 805.713,370.877 C 805.713,368.123 805.249,365.823 804.79,363.528 C 802.495,357.556 797.441,352.966 788.262,352.966 C 779.995,352.966 774.483,357.097 771.265,363.528 C 769.888,366.746 768.97,370.877 768.97,375.012 C 768.97,390.168 776.319,397.058 789.639,397.058 C 795.152,397.058 800.201,396.14 804.341,394.304 L 804.341,394.304 L 803.413,387.873 L 803.413,387.873 C 800.2,389.709 795.151,390.627 791.016,390.627 C 781.368,390.627 776.778,386.032 777.237,374.553 L 777.237,374.553 L 805.714,374.553 L 805.714,374.553 C 805.713,373.177 805.713,371.795 805.713,370.877 L 805.713,370.877 L 805.713,370.877 L 805.713,370.877 z M 777.237,369.041 C 777.696,367.205 778.155,365.364 779.073,363.528 C 780.909,360.315 784.127,358.474 788.262,358.474 C 792.388,358.474 795.152,360.315 796.983,363.528 C 797.442,365.364 797.906,367.205 797.906,369.041 L 797.906,369.041 L 777.237,369.041 L 777.237,369.041 L 777.237,369.041 z "/>
  <path
     d="M 872.31,396.141 L 872.31,369.041 L 872.31,369.041 C 872.31,363.069 870.928,359.397 864.956,359.397 C 858.989,359.397 853.018,365.823 853.018,375.93 L 853.018,375.93 L 853.018,396.14 L 844.751,396.14 L 844.751,369.04 L 844.751,369.04 C 844.751,363.527 843.833,359.396 837.861,359.396 C 830.971,359.396 825.459,366.286 825.459,375.929 L 825.459,375.929 L 825.459,396.139 L 817.651,396.139 L 817.651,353.883 L 825.459,353.883 L 825.459,353.883 C 825.459,356.178 825,359.855 824.541,362.609 L 824.541,362.609 L 825,362.609 L 825,362.609 C 827.3,356.637 832.808,352.965 840.156,352.965 C 849.341,352.965 851.64,358.932 852.104,362.609 C 853.935,358.473 858.53,352.965 867.255,352.965 C 875.522,352.965 880.116,357.096 880.116,366.744 L 880.116,366.744 L 880.116,396.139 L 872.31,396.139 L 872.31,396.141 L 872.31,396.141 z "/>

  <path
     d="M 901.705,397.059 C 898.487,397.059 895.274,396.6 892.516,396.141 L 892.516,396.141 L 892.975,389.251 L 892.975,389.251 C 895.734,390.169 898.947,390.628 902.623,390.628 C 908.136,390.628 912.267,388.333 912.267,384.197 C 912.267,375.012 892.057,380.525 892.057,365.823 C 892.057,358.474 898.029,352.967 909.518,352.967 C 911.808,352.967 915.026,353.426 917.78,353.885 L 917.78,353.885 L 917.78,360.316 L 917.78,360.316 C 915.026,359.398 911.808,358.934 908.595,358.934 C 903.082,358.934 899.869,361.234 899.869,364.906 C 899.869,374.095 920.533,369.042 920.533,383.28 C 920.533,391.087 913.643,397.059 901.705,397.059 L 901.705,397.059 L 901.705,397.059 L 901.705,397.059 z "/>

  <path
     d="M 472.725,346.536 C 475.94,346.536 478.238,344.236 478.238,341.482 C 478.238,338.728 475.94,336.887 472.725,336.887 C 469.976,336.887 467.674,338.728 467.674,341.482 C 467.674,344.695 469.976,346.536 472.725,346.536 L 472.725,346.536 L 472.725,346.536 L 472.725,346.536 z "/>


  <polygon
     points="462.623,353.426 462.623,359.397 469.053,359.397 469.053,396.141 476.858,396.141 476.858,353.885 462.623,353.426 462.623,353.426 "/>

</symbol>


<symbol id="WindowListIcon">
  <defs>
    <linearGradient
       id="linearGradient168">
      <stop offset="0.000000" style="stop-color:#cdffff;stop-opacity:1;"  />
      <stop offset="1.000000" style="stop-color:#0c5d7d;stop-opacity:0.905882;"  />
    </linearGradient>
    <linearGradient
       id="linearGradient67">
      <stop
         offset="0.000000"
         style="stop-color:#e5ffff;stop-opacity:0.980392;"
         id="stop70" />
      <stop
         offset="1.000000"
         style="stop-color:#9cdee5;stop-opacity:0.992157;"
         id="stop69" />
    </linearGradient>
    <linearGradient
       id="linearGradient57">
      <stop
         offset="0.000000"
         style="stop-color:#ffffff;stop-opacity:1;"
         id="stop59" />
      <stop
         offset="1.000000"
         style="stop-color:#797979;stop-opacity:1;"
         id="stop58" />
    </linearGradient>
      <radialGradient
         id="1"
         cx="869.603027"
         cy="1973.579956"
         r="2106.649902"
         fx="869.603027"
         fy="1973.579956"
         gradientUnits="userSpaceOnUse"
         xlink:href="#linearGradient67" />
    
      <linearGradient
         id="2"
         x1="255.848"
         y1="119.147"
         x2="375.686"
         y2="34.1009"
         gradientUnits="userSpaceOnUse">
        <stop
           offset="0"
           style="stop-color:#ffffff"
           id="stop13" />
        <stop
           offset="1"
           style="stop-color:#000000"
           id="stop14" />
      </linearGradient>
      <linearGradient
         id="3"
         x1="275.053009"
         y1="109.384003"
         x2="356.480988"
         y2="30.864300"
         gradientUnits="userSpaceOnUse"
         xlink:href="#linearGradient57" />
    <radialGradient
       cx="3.03981e-14"
       cy="1.05578e-10"
       r="0.773346"
       fx="3.03981e-14"
       fy="1.05578e-10"
       xlink:href="#linearGradient168"
       id="radialGradient88"
       gradientUnits="objectBoundingBox"
       gradientTransform="matrix(0.945877,0,0,1.05722,0.264368,0.249996)"
       spreadMethod="pad" />
    <linearGradient
       xlink:href="#linearGradient67"
       id="linearGradient89"
       x1="2.77869"
       y1="0.326241"
       x2="3.63856"
       y2="1.15437"
       gradientUnits="objectBoundingBox"
       gradientTransform="translate(-2.65767,-0.201241)"
       spreadMethod="pad" />
    <linearGradient
       id="linearGradient427">
      <stop
         offset="0.000000"
         style="stop-color:#ffffff;stop-opacity:1;"
         id="stop428" />
      <stop
         offset="1.000000"
         style="stop-color:#797979;stop-opacity:1;"
         id="stop429" />
    </linearGradient>
    <radialGradient
       id="radialGradient430"
       cx="869.603027"
       cy="1973.579956"
       r="2106.649902"
       fx="869.603027"
       fy="1973.579956"
       gradientUnits="userSpaceOnUse"
       xlink:href="#linearGradient67" />
    <linearGradient
       id="linearGradient431"
       x1="255.848"
       y1="119.147"
       x2="375.686"
       y2="34.1009"
       gradientUnits="userSpaceOnUse">
      <stop
         offset="0"
         style="stop-color:#ffffff"
         id="stop432" />
      <stop
         offset="1"
         style="stop-color:#000000"
         id="stop433" />
    </linearGradient>
    <linearGradient
       id="linearGradient434"
       x1="275.053009"
       y1="109.384003"
       x2="356.480988"
       y2="30.864300"
       gradientUnits="userSpaceOnUse"
       xlink:href="#linearGradient57" />

  </defs>
  <g transform="matrix(0.830023,0.21344,-0.21344,0.830023,34.527,-12.6722)">
    <path
       style="font-size:12px;fill:url(#linearGradient89);fill-opacity:0.699301;stroke:#2ea6b9;stroke-width:14.0463;stroke-opacity:0.98;"
       d="M -52.1016 244.649 L 366.038 243.458 L 365.767 535.103 L -53.9123 533.292 L -52.1016 244.649 z "
       transform="matrix(0.327849,0,0,0.386492,29.9559,-76.1115)"/>

    <path
       style="font-size:12px;fill:url(#radialGradient88);stroke:#0c5d7d;stroke-opacity:0.99;stroke-width:4.03585;"
       d="M -42.4604 274.763 L 433.35 273.812 L 434.557 303.708 L -42.4604 305.48 L -42.4604 274.763 z "
       transform="matrix(0.278752,0,0,0.284891,26.8038,-57.9251)"/>

  </g>
  <g transform="matrix(0.857027,0,0,0.857027,-3.2915,34.8739)">
    <path
       style="font-size:12px;fill:url(#linearGradient89);fill-opacity:0.699301;stroke:#2ea6b9;stroke-width:14.0463;stroke-opacity:0.98;"
       d="M -52.1016 244.649 L 366.038 243.458 L 365.767 535.103 L -53.9123 533.292 L -52.1016 244.649 z "
       transform="matrix(0.327849,0,0,0.386492,29.9559,-76.1115)"/>

    <path
       style="font-size:12px;fill:url(#radialGradient88);stroke:#0c5d7d;stroke-opacity:0.99;stroke-width:4.03585;"
       d="M -42.4604 274.763 L 433.35 273.812 L 434.557 303.708 L -42.4604 305.48 L -42.4604 274.763 z "
       transform="matrix(0.278752,0,0,0.284891,26.8038,-57.9251)"/>
  </g>
  <path
     style="font-size:12px;fill:#0c5d7d;stroke:#0c5d7d;stroke-width:4.03585;stroke-opacity:0.99;fill-opacity:0.992157;"
     d="M -42.4604 274.763 L 433.35 273.812 L 434.557 303.708 L -42.4604 305.48 L -42.4604 274.763 z "
     transform="matrix(0.104519,0,0,0.244159,33.6591,11.4765)" />
  <path
     style="font-size:12px;fill:#0c5d7d;stroke:#0c5d7d;stroke-width:4.03585;stroke-opacity:0.99;fill-opacity:0.992157;"
     d="M -42.4604 274.763 L 433.35 273.812 L 434.557 303.708 L -42.4604 305.48 L -42.4604 274.763 z "
     transform="matrix(0.104519,0,0,0.244159,33.6591,29.1421)" />

  <path
     style="font-size:12px;fill:#0c5d7d;stroke:#0c5d7d;stroke-width:4.03585;stroke-opacity:0.99;fill-opacity:0.992157;"
     d="M -42.4604 274.763 L 433.35 273.812 L 434.557 303.708 L -42.4604 305.48 L -42.4604 274.763 z "
     transform="matrix(0.104519,0,0,0.244159,33.6591,47.3124)" />

</symbol>



<symbol id="GearIcon">
  <defs>
    <linearGradient id="GearIconGradient">
      <stop offset="0" style="stop-color:#fbddb2;stop-opacity:0.992157;"  />
      <stop offset="1" style="stop-color:#efa81a;stop-opacity:0.952941;"  />
    </linearGradient>
    
  </defs>

  <path
     d=" M 142.384 60.3379 C 145.692 54.1689 142.622 50.6606 136.245 53.3211 L 123.49 58.6423 C 117.029 61.3374 108.572 57.417 106.575 50.8016 L 102.581 37.5707 C 100.558 30.8693 95.9072 30.5589 93.2789 36.9499 L 88.0223 49.7317 C 85.3598 56.2056 76.6075 59.4137 70.5176 56.1479 L 58.3379 49.6164 C 52.1689 46.3082 48.6606 49.3776 51.3211 55.7551 L 56.6423 68.5103 C 59.3374 74.9706 55.417 83.4279 48.8016 85.4249 L 35.5707 89.4187 C 28.8693 91.4416 28.5589 96.0928 34.9499 98.7211 L 47.7317 103.978 C 54.2056 106.64 57.4137 115.392 54.1479 121.482 L 47.6164 133.662 C 44.3082 139.831 47.3776 143.339 53.7551 140.679 L 66.5103 135.358 C 72.9706 132.663 81.4279 136.583 83.4249 143.198 L 87.4187 156.429 C 89.4416 163.131 94.0928 163.441 96.7211 157.05 L 101.978 144.268 C 104.64 137.794 113.392 134.586 119.482 137.852 L 131.662 144.384 C 137.831 147.692 141.339 144.622 138.679 138.245 L 133.358 125.49 C 130.663 119.029 134.583 110.572 141.198 108.575 L 154.429 104.581 C 161.131 102.558 161.441 97.9072 155.05 95.2789 L 142.268 90.0223 C 135.794 87.3598 132.586 78.6075 135.852 72.5176 L 142.384 60.3379"
     fill="none"
     fill-opacity="1"
     fill-rule="nonzero"
     stroke="#000000"
     stroke-opacity="1"
     stroke-width="1"
     stroke-linecap="butt"
     stroke-linejoin="miter"
     stroke-miterlimit="10"
     id="path5"
     style="font-size:12px;fill:url(#GearIconGradient);stroke:#580400;stroke-opacity:0.992157;stroke-width:3.41213;"
     transform="matrix(3.51571,0,0,3.51571,-79.5579,-78.1802)" />
  <path
     d=" M 42 66 C 42 48.3269 57.2223 34 76 34 C 94.7777 34 110 48.3269 110 66 C 110 83.6731 94.7777 98 76 98 C 57.2223 98 42 83.6731 42 66Z"
     fill="none"
     fill-opacity="1"
     fill-rule="nonzero"
     stroke="#000000"
     stroke-opacity="1"
     stroke-width="1"
     stroke-linecap="butt"
     stroke-linejoin="miter"
     stroke-miterlimit="10"
     id="path204"
     style="font-size:12px;fill:none;stroke:#580400;stroke-opacity:0.992157;stroke-width:3.89659;"
     transform="matrix(3.0786,0,0,3.0786,18.7729,61.2425)" />
</symbol>




<g id="BackgroundImage" width="1024.0000pt" height="768.00000pt" >
  <defs
     id="defs3">
    <linearGradient 
       id="linearGradient1812">
      <stop
         style="stop-color:#ffffff;stop-opacity:0.058823530;"
         offset="0.0000000"
         id="stop1813" />
      <stop
         style="stop-color:#ffffff;stop-opacity:0.0000000;"
         offset="1.0000000"
         id="stop1814" />
    </linearGradient>
    <linearGradient 
       id="linearGradient4276">
      <stop
         style="stop-color:#ffffff;stop-opacity:0.11764706;"
         offset="0.0000000"
         id="stop4277" />
      <stop
         style="stop-color:#fefeff;stop-opacity:0.0000000;"
         offset="1.0000000"
         id="stop4278" />
    </linearGradient>
    <linearGradient 
       id="linearGradient3030">
      <stop
         style="stop-color:#0e3581;stop-opacity:0.0000000;"
         offset="0.0000000"
         id="stop3031" />
      <stop
         style="stop-color:#1443a0;stop-opacity:1.0000000;"
         offset="0.50000000"
         id="stop3032" />
      <stop
         style="stop-color:#0440b6;stop-opacity:0.0000000;"
         offset="1.0000000"
         id="stop3033" />
    </linearGradient>
    <linearGradient 
       id="linearGradient1810">
      <stop
         style="stop-color:#ffffff;stop-opacity:0.39215687;"
         offset="0.0000000"
         id="stop1811" />
      <stop
         style="stop-color:#fefeff;stop-opacity:0.054901961;"
         offset="1.0000000"
         id="stop1812" />
    </linearGradient>
    <linearGradient 
       id="linearGradient12401">
      <stop
         style="stop-color:#ffffff;stop-opacity:0.0000000;"
         offset="0.0000000"
         id="stop12402" />
      <stop
         style="stop-color:#ffffff;stop-opacity:0.039215688;"
         offset="0.50000000"
         id="stop9333" />
      <stop
         style="stop-color:#ffffff;stop-opacity:0.0000000;"
         offset="1.0000000"
         id="stop12403" />
    </linearGradient>
    <radialGradient 
       xlink:href="#linearGradient1810"
       id="radialGradient9346"
       gradientUnits="userSpaceOnUse"
       gradientTransform="matrix(0.404153,0.000000,0.000000,0.406072,598.1281,554.3846)"
       cx="905.61401"
       cy="375.39572"
       fx="905.61401"
       fy="375.39572"
       r="201.99170" />
    <linearGradient 
       xlink:href="#linearGradient1810"
       id="linearGradient1357"
       gradientUnits="userSpaceOnUse"
       gradientTransform="scale(1.586615,0.630273)"
       x1="318.57779"
       y1="-62.640854"
       x2="350.99991"
       y2="820.59406"
       spreadMethod="pad" />
    <linearGradient 
       xlink:href="#linearGradient3030"
       id="linearGradient1158"
       gradientUnits="userSpaceOnUse"
       gradientTransform="matrix(1.154700,0.000000,0.000000,0.866026,0.000000,1.250000e-6)"
       x1="548.97797"
       y1="762.54321"
       x2="1061.0055"
       y2="924.93665" />
    <linearGradient 
       xlink:href="#linearGradient1812"
       id="linearGradient1811"
       gradientTransform="matrix(1.065232,0.000000,0.000000,0.938763,3.875000e-6,1.250000e-6)"
       x1="1339.2728"
       y1="626.07275"
       x2="618.57043"
       y2="422.78098"
       gradientUnits="userSpaceOnUse" />
    <linearGradient 
       xlink:href="#linearGradient4276"
       id="linearGradient3061"
       gradientTransform="matrix(0.541725,0.000000,0.000000,1.845955,0.000000,1.250000e-6)"
       x1="1384.5165"
       y1="128.08214"
       x2="2398.2710"
       y2="264.82779"
       gradientUnits="userSpaceOnUse" />
    <linearGradient 
       xlink:href="#linearGradient12401"
       id="linearGradient11144"
       gradientUnits="userSpaceOnUse"
       gradientTransform="matrix(0.762786,0.000000,0.000000,1.310983,212.5985,1.250000e-6)"
       x1="929.92407"
       y1="365.15329"
       x2="1407.9355"
       y2="550.30981" />
    <linearGradient 
       xlink:href="#linearGradient12401"
       id="linearGradient11147"
       gradientUnits="userSpaceOnUse"
       gradientTransform="matrix(-0.762786,0.000000,0.000000,-1.310983,1832.162,961.8219)"
       x1="929.92407"
       y1="365.15329"
       x2="1407.9355"
       y2="550.30981" />
  </defs>


  <rect
     style="fill:#01306f;fill-opacity:1.0000000;fill-rule:evenodd;stroke:none;stroke-width:1.2641267;stroke-linecap:round;stroke-linejoin:round;stroke-miterlimit:4.0000000;stroke-dashoffset:0.0000000;stroke-opacity:0.53846157;opacity:1.0000000;"
     id="rect1107"
     width="1280.0277"
     height="960.08405"
     x="0"
     y="0" />
  <path
     style="opacity:1.0000000;fill:url(#linearGradient11144);fill-opacity:1.0;fill-rule:evenodd;stroke:none;stroke-width:0.25000000pt;stroke-linecap:butt;stroke-linejoin:miter;stroke-opacity:1.0000000;"
     d="M 1164.6875,-0.75000000 C 1264.1658,310.36483 928.09429,637.67931 910.37499,960.25000 L 1174.2188,960.25000 C 1061.8331,737.67599 1049.9459,485.68925 1280.0312,197.40625 L 1280.0312,-0.75000000 L 1164.6875,-0.75000000 z "
     id="path4304" />
  <path
     style="opacity:1.0000000;fill:url(#linearGradient11147);fill-opacity:1.0000000;fill-rule:evenodd;stroke:none;stroke-width:0.25000000pt;stroke-linecap:butt;stroke-linejoin:miter;stroke-opacity:1.0000000;"
     d="M 829.65625,-0.50000025 C 1031.4017,557.04606 845.39092,808.53061 580.62500,960.50000 L 825.75000,960.50000 C 904.33533,619.24414 1060.6764,323.51245 1073.2812,-0.50000025 L 829.65625,-0.50000025 z "
     id="path4930" />
<!--
  <rect
     style="fill:url(#linearGradient1158);fill-opacity:1.0000000;fill-rule:evenodd;stroke:none;stroke-width:1.2641267;stroke-linecap:round;stroke-linejoin:round;stroke-miterlimit:4.0000000;stroke-dashoffset:0.0000000;stroke-opacity:0.53846157"
     id="rect1157"
     width="1280.0000"
     height="960.00000"
     x="1.5987212e-14"
     y="1.1352537e-07" />

  <path
     style="opacity:1.0000000;fill:url(#linearGradient1811);fill-opacity:1.0;fill-rule:evenodd;stroke:none;stroke-width:0.25000000pt;stroke-linecap:butt;stroke-linejoin:miter;stroke-opacity:1.0000000;"
     d="M 998.64315,0.12143725 C 1178.5884,346.48963 979.64602,613.84975 763.74942,960.21179 L 227.12670,959.99461 C 651.81793,559.41702 1097.6512,512.65965 1135.4391,-0.15054875 L 998.64315,0.12143725 z "
     />
  <path
     style="opacity:1.0000000;fill:url(#linearGradient3061);fill-opacity:1.0;fill-rule:evenodd;stroke:none;stroke-width:0.25000000pt;stroke-linecap:butt;stroke-linejoin:miter;stroke-opacity:1.0000000;"
     d="M 1191.6322,-0.054393750 L 1279.5057,0.026825250 C 1202.3723,340.29241 1121.0153,603.28417 1279.6757,959.65988 L 1062.2333,960.08122 C 884.53364,723.31105 1118.8925,258.68414 1191.6322,-0.054393750 z "
     />
-->
<!--
  <rect
     style="stroke:none;fill:none;fill-opacity:0.35159817;opacity:1.0000000;fill-rule:nonzero;stroke-opacity:1.0000000;stroke-linejoin:round;"
     width="176.62337"
     height="177.46243"
     x="876.94055"
     y="614.13489"
     />
  <path 
     style="opacity:1.0000000;fill:url(#linearGradient1357);fill-opacity:1.0;fill-rule:nonzero;stroke:none;stroke-width:1.2500000;stroke-linecap:round;stroke-linejoin:round;stroke-miterlimit:4.0000000;stroke-dashoffset:0.0000000;stroke-opacity:1.0000000;"
     d="M -1.0449995,-4.9737992e-14 L -1.0449995,509.30198 C 628.20728,497.68494 637.42476,319.15544 1281.0450,311.40751 L 1281.0450,-4.9737992e-14 L -1.0449995,-4.9737992e-14 z "
     />
-->


</g>


<!--
<rect id="ProtoRect" width="100"/> 

<g id="TextSelectionStyle" morphic:type="Selection" fill="rgb(0,255,0)" stroke-width="0">  </g> 

<filter id="DropShadowFilter" filterUnits="userSpaceOnUse" x="0" y="0" width="200" height="120">
      <feGaussianBlur in="SourceAlpha" stdDeviation="4" result="blur"/>
      <feOffset in="blur" dx="4" dy="4" result="offsetBlur"/>
      <feSpecularLighting in="blur" surfaceScale="5" specularConstant=".75" 
                          specularExponent="20" lighting-color="#bbbbbb"  
                          result="specOut">
        <fePointLight x="-5000" y="-10000" z="20000"/>
      </feSpecularLighting>
      <feComposite in="specOut" in2="SourceAlpha" operator="in" result="specOut"/>
      <feComposite in="SourceGraphic" in2="specOut" operator="arithmetic" 
                   k1="0" k2="1" k3="1" k4="0" result="litPaint"/>
      <feMerge>
        <feMergeNode in="offsetBlur"/>
        <feMergeNode in="litPaint"/>
      </feMerge>
    </filter>
-->

<script type="text/ecmascript" xlink:href="prototype.js"/>
<script type="text/ecmascript"> <![CDATA[ var Config = {} ]]> </script>
<script type="text/ecmascript" xlink:href="localconfig.js"/> <!-- ignored if file not there -->
<script type="text/ecmascript" xlink:href="Core.js"/>
<script type="text/ecmascript" xlink:href="svgtext-compat.js"/>
<script type="text/ecmascript" xlink:href="Text.js"/>
<script type="text/ecmascript" xlink:href="Widgets.js"/>
<script type="text/ecmascript" xlink:href="Tools.js"/>
<script type="text/ecmascript" xlink:href="Tutorial04-Selecting.js"/>
</defs>

<!--
-->
</svg>

